<svg width="64" height="64" viewBox="0 0 64 64" fill="none" xmlns="http://www.w3.org/2000/svg">
  <!-- Background Circle -->
  <circle cx="32" cy="32" r="28" fill="url(#gradient)" stroke="url(#borderGradient)" stroke-width="2"/>
  
  <!-- Speech Bubble -->
  <path d="M18 24C18 20.6863 20.6863 18 24 18H40C43.3137 18 46 20.6863 46 24V32C46 35.3137 43.3137 38 40 38H28L22 42V38C18.6863 38 18 35.3137 18 32V24Z" fill="white" fill-opacity="0.9"/>
  
  <!-- AI Dots -->
  <circle cx="26" cy="28" r="2" fill="#0ea5e9"/>
  <circle cx="32" cy="28" r="2" fill="#0ea5e9"/>
  <circle cx="38" cy="28" r="2" fill="#0ea5e9"/>
  
  <!-- Voice Waves -->
  <path d="M26 34C28 32 30 32 32 34" stroke="#10b981" stroke-width="2" stroke-linecap="round" fill="none"/>
  <path d="M28 36C29 35 31 35 32 36" stroke="#10b981" stroke-width="1.5" stroke-linecap="round" fill="none"/>
  
  <!-- Gradients -->
  <defs>
    <linearGradient id="gradient" x1="0%" y1="0%" x2="100%" y2="100%">
      <stop offset="0%" style="stop-color:#0ea5e9;stop-opacity:1" />
      <stop offset="100%" style="stop-color:#06b6d4;stop-opacity:1" />
    </linearGradient>
    <linearGradient id="borderGradient" x1="0%" y1="0%" x2="100%" y2="100%">
      <stop offset="0%" style="stop-color:#0284c7;stop-opacity:1" />
      <stop offset="100%" style="stop-color:#0891b2;stop-opacity:1" />
    </linearGradient>
  </defs>
</svg> 